<svg xmlns="http://www.w3.org/2000/svg" xmlns:xlink="http://www.w3.org/1999/xlink" width="500" zoomAndPan="magnify" viewBox="0 0 375 374.999991" height="500" preserveAspectRatio="xMidYMid meet" version="1.2"><defs><clipPath id="8a620442f1"><path d="M 72.222656 30.726562 L 302.777344 30.726562 L 302.777344 261.285156 L 72.222656 261.285156 Z M 72.222656 30.726562 "/></clipPath><clipPath id="fa40a8bcab"><path d="M 187.5 30.726562 C 123.832031 30.726562 72.222656 82.339844 72.222656 146.003906 C 72.222656 209.671875 123.832031 261.285156 187.5 261.285156 C 251.167969 261.285156 302.777344 209.671875 302.777344 146.003906 C 302.777344 82.339844 251.167969 30.726562 187.5 30.726562 Z M 187.5 30.726562 "/></clipPath><clipPath id="ffc42ce99e"><path d="M 82.5 41.003906 L 292.5 41.003906 L 292.5 251.003906 L 82.5 251.003906 Z M 82.5 41.003906 "/></clipPath><clipPath id="9ceca1f6f7"><path d="M 187.5 41.003906 C 129.507812 41.003906 82.5 88.015625 82.5 146.003906 C 82.5 203.996094 129.507812 251.003906 187.5 251.003906 C 245.492188 251.003906 292.5 203.996094 292.5 146.003906 C 292.5 88.015625 245.492188 41.003906 187.5 41.003906 Z M 187.5 41.003906 "/></clipPath><linearGradient x1="-0.00000382476" gradientTransform="matrix(0.820312,0,0,0.820312,82.500003,41.005649)" y1="128" x2="255.999985" gradientUnits="userSpaceOnUse" y2="128" id="d3e23449c6"><stop style="stop-color:#6e6b6b;stop-opacity:1;" offset="0"/><stop style="stop-color:#6d6b6b;stop-opacity:1;" offset="0.015625"/><stop style="stop-color:#6d6b6b;stop-opacity:1;" offset="0.0234375"/><stop style="stop-color:#6d6a6a;stop-opacity:1;" offset="0.03125"/><stop style="stop-color:#6c6a6a;stop-opacity:1;" offset="0.046875"/><stop style="stop-color:#6c6969;stop-opacity:1;" offset="0.0625"/><stop style="stop-color:#6b6868;stop-opacity:1;" offset="0.0703125"/><stop style="stop-color:#6a6767;stop-opacity:1;" offset="0.078125"/><stop style="stop-color:#6a6767;stop-opacity:1;" offset="0.09375"/><stop style="stop-color:#696666;stop-opacity:1;" offset="0.101562"/><stop style="stop-color:#686666;stop-opacity:1;" offset="0.109375"/><stop style="stop-color:#686565;stop-opacity:1;" offset="0.125"/><stop style="stop-color:#676464;stop-opacity:1;" offset="0.140625"/><stop style="stop-color:#666464;stop-opacity:1;" offset="0.148438"/><stop style="stop-color:#656363;stop-opacity:1;" offset="0.15625"/><stop style="stop-color:#656262;stop-opacity:1;" offset="0.171875"/><stop style="stop-color:#646161;stop-opacity:1;" offset="0.1875"/><stop style="stop-color:#646161;stop-opacity:1;" offset="0.195312"/><stop style="stop-color:#636161;stop-opacity:1;" offset="0.203125"/><stop style="stop-color:#626060;stop-opacity:1;" offset="0.21875"/><stop style="stop-color:#626060;stop-opacity:1;" offset="0.226562"/><stop style="stop-color:#615f5f;stop-opacity:1;" offset="0.234375"/><stop style="stop-color:#605f5f;stop-opacity:1;" offset="0.25"/><stop style="stop-color:#605e5e;stop-opacity:1;" offset="0.265625"/><stop style="stop-color:#5f5d5d;stop-opacity:1;" offset="0.273438"/><stop style="stop-color:#5e5c5c;stop-opacity:1;" offset="0.28125"/><stop style="stop-color:#5e5c5c;stop-opacity:1;" offset="0.296875"/><stop style="stop-color:#5d5b5b;stop-opacity:1;" offset="0.3125"/><stop style="stop-color:#5d5b5b;stop-opacity:1;" offset="0.320313"/><stop style="stop-color:#5c5a5a;stop-opacity:1;" offset="0.328125"/><stop style="stop-color:#5c5a5a;stop-opacity:1;" offset="0.34375"/><stop style="stop-color:#5b5959;stop-opacity:1;" offset="0.351563"/><stop style="stop-color:#5a5858;stop-opacity:1;" offset="0.359375"/><stop style="stop-color:#595757;stop-opacity:1;" offset="0.375"/><stop style="stop-color:#585656;stop-opacity:1;" offset="0.390625"/><stop style="stop-color:#585656;stop-opacity:1;" offset="0.398438"/><stop style="stop-color:#575656;stop-opacity:1;" offset="0.40625"/><stop style="stop-color:#565555;stop-opacity:1;" offset="0.421875"/><stop style="stop-color:#555454;stop-opacity:1;" offset="0.4375"/><stop style="stop-color:#555454;stop-opacity:1;" offset="0.445313"/><stop style="stop-color:#555353;stop-opacity:1;" offset="0.453125"/><stop style="stop-color:#545252;stop-opacity:1;" offset="0.46875"/><stop style="stop-color:#545252;stop-opacity:1;" offset="0.476563"/><stop style="stop-color:#535151;stop-opacity:1;" offset="0.484375"/><stop style="stop-color:#525151;stop-opacity:1;" offset="0.5"/><stop style="stop-color:#525050;stop-opacity:1;" offset="0.515625"/><stop style="stop-color:#515050;stop-opacity:1;" offset="0.523438"/><stop style="stop-color:#504f4f;stop-opacity:1;" offset="0.53125"/><stop style="stop-color:#504f4f;stop-opacity:1;" offset="0.546875"/><stop style="stop-color:#4f4e4e;stop-opacity:1;" offset="0.5625"/><stop style="stop-color:#4e4d4d;stop-opacity:1;" offset="0.570312"/><stop style="stop-color:#4d4c4c;stop-opacity:1;" offset="0.578125"/><stop style="stop-color:#4d4b4b;stop-opacity:1;" offset="0.59375"/><stop style="stop-color:#4d4b4b;stop-opacity:1;" offset="0.601563"/><stop style="stop-color:#4c4b4b;stop-opacity:1;" offset="0.609375"/><stop style="stop-color:#4b4a4a;stop-opacity:1;" offset="0.625"/><stop style="stop-color:#4a4949;stop-opacity:1;" offset="0.640625"/><stop style="stop-color:#4a4949;stop-opacity:1;" offset="0.648438"/><stop style="stop-color:#494848;stop-opacity:1;" offset="0.65625"/><stop style="stop-color:#484747;stop-opacity:1;" offset="0.671875"/><stop style="stop-color:#474747;stop-opacity:1;" offset="0.6875"/><stop style="stop-color:#474646;stop-opacity:1;" offset="0.703125"/><stop style="stop-color:#464646;stop-opacity:1;" offset="0.71875"/><stop style="stop-color:#454545;stop-opacity:1;" offset="0.726563"/><stop style="stop-color:#454444;stop-opacity:1;" offset="0.734375"/><stop style="stop-color:#454444;stop-opacity:1;" offset="0.75"/><stop style="stop-color:#444343;stop-opacity:1;" offset="0.765625"/><stop style="stop-color:#434242;stop-opacity:1;" offset="0.773437"/><stop style="stop-color:#424141;stop-opacity:1;" offset="0.78125"/><stop style="stop-color:#424141;stop-opacity:1;" offset="0.796875"/><stop style="stop-color:#414040;stop-opacity:1;" offset="0.8125"/><stop style="stop-color:#404040;stop-opacity:1;" offset="0.820312"/><stop style="stop-color:#3f3f3f;stop-opacity:1;" offset="0.828125"/><stop style="stop-color:#3e3e3e;stop-opacity:1;" offset="0.84375"/><stop style="stop-color:#3e3e3e;stop-opacity:1;" offset="0.851563"/><stop style="stop-color:#3d3d3d;stop-opacity:1;" offset="0.859375"/><stop style="stop-color:#3d3c3c;stop-opacity:1;" offset="0.875"/><stop style="stop-color:#3c3b3b;stop-opacity:1;" offset="0.890625"/><stop style="stop-color:#3c3b3b;stop-opacity:1;" offset="0.898437"/><stop style="stop-color:#3b3b3b;stop-opacity:1;" offset="0.90625"/><stop style="stop-color:#3a3a3a;stop-opacity:1;" offset="0.921875"/><stop style="stop-color:#3a3a3a;stop-opacity:1;" offset="0.9375"/><stop style="stop-color:#393939;stop-opacity:1;" offset="0.945312"/><stop style="stop-color:#383838;stop-opacity:1;" offset="0.953125"/><stop style="stop-color:#383838;stop-opacity:1;" offset="0.96875"/><stop style="stop-color:#373737;stop-opacity:1;" offset="0.976563"/><stop style="stop-color:#363636;stop-opacity:1;" offset="0.984375"/><stop style="stop-color:#363636;stop-opacity:1;" offset="1"/></linearGradient><clipPath id="7a29ca9045"><path d="M 56.25 133 L 237 133 L 237 277.253906 L 56.25 277.253906 Z M 56.25 133 "/></clipPath></defs><g id="11c8db2174"><g clip-rule="nonzero" clip-path="url(#8a620442f1)"><g clip-rule="nonzero" clip-path="url(#fa40a8bcab)"><path style=" stroke:none;fill-rule:nonzero;fill:#ffffff;fill-opacity:1;" d="M 72.222656 30.726562 L 302.777344 30.726562 L 302.777344 261.285156 L 72.222656 261.285156 Z M 72.222656 30.726562 "/></g></g><g clip-rule="nonzero" clip-path="url(#ffc42ce99e)"><g clip-rule="nonzero" clip-path="url(#9ceca1f6f7)"><path style=" stroke:none;fill-rule:nonzero;fill:url(#d3e23449c6);" d="M 82.5 41.003906 L 82.5 251.003906 L 292.5 251.003906 L 292.5 41.003906 Z M 82.5 41.003906 "/></g></g><path style="fill:none;stroke-width:22;stroke-linecap:butt;stroke-linejoin:miter;stroke:#ffffff;stroke-opacity:1;stroke-miterlimit:4;" d="M 0.00321015 11.001749 L 419.43533 11.001749 " transform="matrix(0,-0.524472,0.524472,0,181.722077,255.282934)"/><g clip-rule="nonzero" clip-path="url(#7a29ca9045)"><path style="fill:none;stroke-width:18;stroke-linecap:butt;stroke-linejoin:miter;stroke:#ffffff;stroke-opacity:1;stroke-miterlimit:4;" d="M -0.000492135 9.000498 L 226.501194 9.000332 " transform="matrix(-0.428753,-0.302978,0.302978,-0.428753,180.026741,259.143996)"/></g><g style="fill:#545454;fill-opacity:1;"><g transform="translate(40.417971, 325.800564)"><path style="stroke:none" d="M 12.53125 0 L 1.078125 -31.25 L 9.515625 -31.25 L 17.453125 -7.625 L 25.390625 -31.25 L 33.828125 -31.25 L 22.296875 0 Z M 12.53125 0 "/></g></g><g style="fill:#545454;fill-opacity:1;"><g transform="translate(73.745006, 325.800564)"><path style="stroke:none" d="M 19.28125 0.75 C 16.125 0.75 13.328125 0.078125 10.890625 -1.265625 C 8.460938 -2.609375 6.554688 -4.492188 5.171875 -6.921875 C 3.785156 -9.359375 3.09375 -12.175781 3.09375 -15.375 C 3.09375 -18.601562 3.773438 -21.476562 5.140625 -24 C 6.503906 -26.519531 8.390625 -28.484375 10.796875 -29.890625 C 13.210938 -31.296875 16.0625 -32 19.34375 -32 C 22.40625 -32 25.113281 -31.328125 27.46875 -29.984375 C 29.820312 -28.640625 31.660156 -26.800781 32.984375 -24.46875 C 34.304688 -22.144531 34.96875 -19.550781 34.96875 -16.6875 C 34.96875 -16.226562 34.957031 -15.742188 34.9375 -15.234375 C 34.914062 -14.734375 34.882812 -14.210938 34.84375 -13.671875 L 11.09375 -13.671875 C 11.257812 -11.234375 12.109375 -9.320312 13.640625 -7.9375 C 15.171875 -6.550781 17.03125 -5.859375 19.21875 -5.859375 C 20.851562 -5.859375 22.226562 -6.222656 23.34375 -6.953125 C 24.457031 -7.691406 25.285156 -8.648438 25.828125 -9.828125 L 34.015625 -9.828125 C 33.429688 -7.847656 32.457031 -6.050781 31.09375 -4.4375 C 29.726562 -2.820312 28.046875 -1.550781 26.046875 -0.625 C 24.054688 0.289062 21.800781 0.75 19.28125 0.75 Z M 19.34375 -25.453125 C 17.363281 -25.453125 15.617188 -24.894531 14.109375 -23.78125 C 12.597656 -22.664062 11.632812 -20.976562 11.21875 -18.71875 L 26.78125 -18.71875 C 26.65625 -20.769531 25.894531 -22.40625 24.5 -23.625 C 23.113281 -24.84375 21.394531 -25.453125 19.34375 -25.453125 Z M 19.34375 -25.453125 "/></g></g><g style="fill:#545454;fill-opacity:1;"><g transform="translate(111.419057, 325.800564)"><path style="stroke:none" d="M 4.09375 0 L 4.09375 -31.25 L 11.28125 -31.25 L 12.03125 -25.390625 C 13.164062 -27.398438 14.707031 -29.003906 16.65625 -30.203125 C 18.613281 -31.398438 20.914062 -32 23.5625 -32 L 23.5625 -23.5 L 21.296875 -23.5 C 19.523438 -23.5 17.945312 -23.222656 16.5625 -22.671875 C 15.175781 -22.128906 14.09375 -21.1875 13.3125 -19.84375 C 12.539062 -18.5 12.15625 -16.628906 12.15625 -14.234375 L 12.15625 0 Z M 4.09375 0 "/></g></g><g style="fill:#545454;fill-opacity:1;"><g transform="translate(136.367084, 325.800564)"><path style="stroke:none" d="M 8.4375 -36.09375 C 6.96875 -36.09375 5.757812 -36.535156 4.8125 -37.421875 C 3.875 -38.304688 3.40625 -39.421875 3.40625 -40.765625 C 3.40625 -42.109375 3.875 -43.207031 4.8125 -44.0625 C 5.757812 -44.925781 6.96875 -45.359375 8.4375 -45.359375 C 9.90625 -45.359375 11.113281 -44.925781 12.0625 -44.0625 C 13.007812 -43.207031 13.484375 -42.109375 13.484375 -40.765625 C 13.484375 -39.421875 13.007812 -38.304688 12.0625 -37.421875 C 11.113281 -36.535156 9.90625 -36.09375 8.4375 -36.09375 Z M 4.40625 0 L 4.40625 -31.25 L 12.46875 -31.25 L 12.46875 0 Z M 4.40625 0 "/></g></g><g style="fill:#000000;fill-opacity:1;"><g transform="translate(153.199217, 325.800564)"><path style="stroke:none" d="M 4.28125 0 L 4.28125 -44.09375 L 19.34375 -44.09375 C 24.507812 -44.09375 28.757812 -43.179688 32.09375 -41.359375 C 35.4375 -39.535156 37.914062 -36.972656 39.53125 -33.671875 C 41.144531 -30.378906 41.953125 -26.503906 41.953125 -22.046875 C 41.953125 -17.597656 41.144531 -13.722656 39.53125 -10.421875 C 37.914062 -7.128906 35.4375 -4.566406 32.09375 -2.734375 C 28.757812 -0.910156 24.507812 0 19.34375 0 Z M 12.34375 -6.9375 L 18.96875 -6.9375 C 22.65625 -6.9375 25.570312 -7.53125 27.71875 -8.71875 C 29.863281 -9.914062 31.394531 -11.640625 32.3125 -13.890625 C 33.238281 -16.140625 33.703125 -18.859375 33.703125 -22.046875 C 33.703125 -25.203125 33.238281 -27.910156 32.3125 -30.171875 C 31.394531 -32.441406 29.863281 -34.1875 27.71875 -35.40625 C 25.570312 -36.625 22.65625 -37.234375 18.96875 -37.234375 L 12.34375 -37.234375 Z M 12.34375 -6.9375 "/></g></g><g style="fill:#000000;fill-opacity:1;"><g transform="translate(197.99227, 325.800564)"><path style="stroke:none" d="M 24.953125 0.75 C 20.535156 0.75 16.675781 -0.210938 13.375 -2.140625 C 10.082031 -4.078125 7.5 -6.753906 5.625 -10.171875 C 3.757812 -13.597656 2.828125 -17.554688 2.828125 -22.046875 C 2.828125 -26.546875 3.757812 -30.503906 5.625 -33.921875 C 7.5 -37.347656 10.082031 -40.023438 13.375 -41.953125 C 16.675781 -43.890625 20.535156 -44.859375 24.953125 -44.859375 C 29.316406 -44.859375 33.15625 -43.890625 36.46875 -41.953125 C 39.789062 -40.023438 42.375 -37.347656 44.21875 -33.921875 C 46.070312 -30.503906 47 -26.546875 47 -22.046875 C 47 -17.554688 46.070312 -13.597656 44.21875 -10.171875 C 42.375 -6.753906 39.789062 -4.078125 36.46875 -2.140625 C 33.15625 -0.210938 29.316406 0.75 24.953125 0.75 Z M 24.953125 -6.484375 C 29.148438 -6.484375 32.5 -7.867188 35 -10.640625 C 37.5 -13.421875 38.75 -17.222656 38.75 -22.046875 C 38.75 -26.878906 37.5 -30.679688 35 -33.453125 C 32.5 -36.222656 29.148438 -37.609375 24.953125 -37.609375 C 20.742188 -37.609375 17.378906 -36.222656 14.859375 -33.453125 C 12.347656 -30.679688 11.09375 -26.878906 11.09375 -22.046875 C 11.09375 -17.222656 12.347656 -13.421875 14.859375 -10.640625 C 17.378906 -7.867188 20.742188 -6.484375 24.953125 -6.484375 Z M 24.953125 -6.484375 "/></g></g><g style="fill:#000000;fill-opacity:1;"><g transform="translate(247.825336, 325.800564)"><path style="stroke:none" d="M 24.25 0.75 C 19.800781 0.75 15.976562 -0.203125 12.78125 -2.109375 C 9.59375 -4.023438 7.132812 -6.691406 5.40625 -10.109375 C 3.6875 -13.535156 2.828125 -17.492188 2.828125 -21.984375 C 2.828125 -26.484375 3.6875 -30.453125 5.40625 -33.890625 C 7.132812 -37.335938 9.59375 -40.023438 12.78125 -41.953125 C 15.976562 -43.890625 19.800781 -44.859375 24.25 -44.859375 C 29.539062 -44.859375 33.878906 -43.546875 37.265625 -40.921875 C 40.648438 -38.296875 42.757812 -34.609375 43.59375 -29.859375 L 34.71875 -29.859375 C 34.164062 -32.253906 32.992188 -34.132812 31.203125 -35.5 C 29.421875 -36.863281 27.0625 -37.546875 24.125 -37.546875 C 20.050781 -37.546875 16.859375 -36.160156 14.546875 -33.390625 C 12.242188 -30.617188 11.09375 -26.816406 11.09375 -21.984375 C 11.09375 -17.148438 12.242188 -13.359375 14.546875 -10.609375 C 16.859375 -7.859375 20.050781 -6.484375 24.125 -6.484375 C 27.0625 -6.484375 29.421875 -7.125 31.203125 -8.40625 C 32.992188 -9.6875 34.164062 -11.460938 34.71875 -13.734375 L 43.59375 -13.734375 C 42.757812 -9.203125 40.648438 -5.65625 37.265625 -3.09375 C 33.878906 -0.53125 29.539062 0.75 24.25 0.75 Z M 24.25 0.75 "/></g></g><g style="fill:#000000;fill-opacity:1;"><g transform="translate(294.256394, 325.800564)"><path style="stroke:none" d="M 4.28125 0 L 4.28125 -44.09375 L 12.34375 -44.09375 L 12.34375 -26.265625 L 28.671875 -44.09375 L 38.625 -44.09375 L 22.359375 -26.59375 L 39.0625 0 L 29.171875 0 L 16.5625 -20.40625 L 12.34375 -15.8125 L 12.34375 0 Z M 4.28125 0 "/></g></g></g></svg>