<svg xmlns="http://www.w3.org/2000/svg" xmlns:xlink="http://www.w3.org/1999/xlink" width="500" zoomAndPan="magnify" viewBox="0 0 375 374.999991" height="500" preserveAspectRatio="xMidYMid meet" version="1.2"><defs><clipPath id="91a87dcfac"><path d="M 78.472656 27.511719 L 296.515625 27.511719 L 296.515625 245.550781 L 78.472656 245.550781 Z M 78.472656 27.511719 "/></clipPath><clipPath id="6ebea709b7"><path d="M 187.496094 27.511719 C 127.285156 27.511719 78.472656 76.320312 78.472656 136.53125 C 78.472656 196.742188 127.285156 245.550781 187.496094 245.550781 C 247.707031 245.550781 296.515625 196.742188 296.515625 136.53125 C 296.515625 76.320312 247.707031 27.511719 187.496094 27.511719 Z M 187.496094 27.511719 "/></clipPath><clipPath id="a11d55874a"><path d="M 88.195312 37.230469 L 286.792969 37.230469 L 286.792969 235.832031 L 88.195312 235.832031 Z M 88.195312 37.230469 "/></clipPath><clipPath id="776303ce65"><path d="M 187.496094 37.230469 C 132.652344 37.230469 88.195312 81.6875 88.195312 136.53125 C 88.195312 191.375 132.652344 235.832031 187.496094 235.832031 C 242.335938 235.832031 286.792969 191.375 286.792969 136.53125 C 286.792969 81.6875 242.335938 37.230469 187.496094 37.230469 Z M 187.496094 37.230469 "/></clipPath><linearGradient x1="-0.00000344783" gradientTransform="matrix(0.775781,0,0,0.775781,88.194361,37.231079)" y1="128" x2="256" gradientUnits="userSpaceOnUse" y2="128" id="4a963b390c"><stop style="stop-color:#6e6b6b;stop-opacity:1;" offset="0"/><stop style="stop-color:#6d6b6b;stop-opacity:1;" offset="0.015625"/><stop style="stop-color:#6d6b6b;stop-opacity:1;" offset="0.0234375"/><stop style="stop-color:#6d6a6a;stop-opacity:1;" offset="0.03125"/><stop style="stop-color:#6c6a6a;stop-opacity:1;" offset="0.046875"/><stop style="stop-color:#6c6969;stop-opacity:1;" offset="0.0625"/><stop style="stop-color:#6b6868;stop-opacity:1;" offset="0.0703125"/><stop style="stop-color:#6a6767;stop-opacity:1;" offset="0.078125"/><stop style="stop-color:#6a6767;stop-opacity:1;" offset="0.09375"/><stop style="stop-color:#696666;stop-opacity:1;" offset="0.101562"/><stop style="stop-color:#686666;stop-opacity:1;" offset="0.109375"/><stop style="stop-color:#686565;stop-opacity:1;" offset="0.125"/><stop style="stop-color:#676464;stop-opacity:1;" offset="0.140625"/><stop style="stop-color:#666464;stop-opacity:1;" offset="0.148437"/><stop style="stop-color:#656363;stop-opacity:1;" offset="0.15625"/><stop style="stop-color:#656262;stop-opacity:1;" offset="0.171875"/><stop style="stop-color:#646161;stop-opacity:1;" offset="0.1875"/><stop style="stop-color:#646161;stop-opacity:1;" offset="0.195312"/><stop style="stop-color:#636161;stop-opacity:1;" offset="0.203125"/><stop style="stop-color:#626060;stop-opacity:1;" offset="0.21875"/><stop style="stop-color:#626060;stop-opacity:1;" offset="0.226562"/><stop style="stop-color:#615f5f;stop-opacity:1;" offset="0.234375"/><stop style="stop-color:#605f5f;stop-opacity:1;" offset="0.25"/><stop style="stop-color:#605e5e;stop-opacity:1;" offset="0.265625"/><stop style="stop-color:#5f5d5d;stop-opacity:1;" offset="0.273437"/><stop style="stop-color:#5e5c5c;stop-opacity:1;" offset="0.28125"/><stop style="stop-color:#5e5c5c;stop-opacity:1;" offset="0.296875"/><stop style="stop-color:#5d5b5b;stop-opacity:1;" offset="0.3125"/><stop style="stop-color:#5d5b5b;stop-opacity:1;" offset="0.320312"/><stop style="stop-color:#5c5a5a;stop-opacity:1;" offset="0.328125"/><stop style="stop-color:#5c5a5a;stop-opacity:1;" offset="0.34375"/><stop style="stop-color:#5b5959;stop-opacity:1;" offset="0.351562"/><stop style="stop-color:#5a5858;stop-opacity:1;" offset="0.359375"/><stop style="stop-color:#595757;stop-opacity:1;" offset="0.375"/><stop style="stop-color:#585656;stop-opacity:1;" offset="0.390625"/><stop style="stop-color:#585656;stop-opacity:1;" offset="0.398437"/><stop style="stop-color:#575656;stop-opacity:1;" offset="0.40625"/><stop style="stop-color:#565555;stop-opacity:1;" offset="0.421875"/><stop style="stop-color:#555454;stop-opacity:1;" offset="0.4375"/><stop style="stop-color:#555454;stop-opacity:1;" offset="0.445312"/><stop style="stop-color:#555353;stop-opacity:1;" offset="0.453125"/><stop style="stop-color:#545252;stop-opacity:1;" offset="0.46875"/><stop style="stop-color:#545252;stop-opacity:1;" offset="0.476562"/><stop style="stop-color:#535151;stop-opacity:1;" offset="0.484375"/><stop style="stop-color:#525151;stop-opacity:1;" offset="0.5"/><stop style="stop-color:#525050;stop-opacity:1;" offset="0.515625"/><stop style="stop-color:#515050;stop-opacity:1;" offset="0.523438"/><stop style="stop-color:#504f4f;stop-opacity:1;" offset="0.53125"/><stop style="stop-color:#504f4f;stop-opacity:1;" offset="0.546875"/><stop style="stop-color:#4f4e4e;stop-opacity:1;" offset="0.5625"/><stop style="stop-color:#4e4d4d;stop-opacity:1;" offset="0.570312"/><stop style="stop-color:#4d4c4c;stop-opacity:1;" offset="0.578125"/><stop style="stop-color:#4d4b4b;stop-opacity:1;" offset="0.59375"/><stop style="stop-color:#4d4b4b;stop-opacity:1;" offset="0.601562"/><stop style="stop-color:#4c4b4b;stop-opacity:1;" offset="0.609375"/><stop style="stop-color:#4b4a4a;stop-opacity:1;" offset="0.625"/><stop style="stop-color:#4a4949;stop-opacity:1;" offset="0.640625"/><stop style="stop-color:#4a4949;stop-opacity:1;" offset="0.648438"/><stop style="stop-color:#494848;stop-opacity:1;" offset="0.65625"/><stop style="stop-color:#484747;stop-opacity:1;" offset="0.671875"/><stop style="stop-color:#474747;stop-opacity:1;" offset="0.6875"/><stop style="stop-color:#474646;stop-opacity:1;" offset="0.703125"/><stop style="stop-color:#464646;stop-opacity:1;" offset="0.71875"/><stop style="stop-color:#454545;stop-opacity:1;" offset="0.726562"/><stop style="stop-color:#454444;stop-opacity:1;" offset="0.734375"/><stop style="stop-color:#454444;stop-opacity:1;" offset="0.75"/><stop style="stop-color:#444343;stop-opacity:1;" offset="0.765625"/><stop style="stop-color:#434242;stop-opacity:1;" offset="0.773438"/><stop style="stop-color:#424141;stop-opacity:1;" offset="0.78125"/><stop style="stop-color:#424141;stop-opacity:1;" offset="0.796875"/><stop style="stop-color:#414040;stop-opacity:1;" offset="0.8125"/><stop style="stop-color:#404040;stop-opacity:1;" offset="0.820312"/><stop style="stop-color:#3f3f3f;stop-opacity:1;" offset="0.828125"/><stop style="stop-color:#3e3e3e;stop-opacity:1;" offset="0.84375"/><stop style="stop-color:#3e3e3e;stop-opacity:1;" offset="0.851562"/><stop style="stop-color:#3d3d3d;stop-opacity:1;" offset="0.859375"/><stop style="stop-color:#3d3c3c;stop-opacity:1;" offset="0.875"/><stop style="stop-color:#3c3b3b;stop-opacity:1;" offset="0.890625"/><stop style="stop-color:#3c3b3b;stop-opacity:1;" offset="0.898438"/><stop style="stop-color:#3b3b3b;stop-opacity:1;" offset="0.90625"/><stop style="stop-color:#3a3a3a;stop-opacity:1;" offset="0.921875"/><stop style="stop-color:#3a3a3a;stop-opacity:1;" offset="0.9375"/><stop style="stop-color:#393939;stop-opacity:1;" offset="0.945312"/><stop style="stop-color:#383838;stop-opacity:1;" offset="0.953125"/><stop style="stop-color:#383838;stop-opacity:1;" offset="0.96875"/><stop style="stop-color:#373737;stop-opacity:1;" offset="0.976562"/><stop style="stop-color:#363636;stop-opacity:1;" offset="0.984375"/><stop style="stop-color:#363636;stop-opacity:1;" offset="1"/></linearGradient><clipPath id="74b99a4dfc"><path d="M 63.371094 124 L 234 124 L 234 260.65625 L 63.371094 260.65625 Z M 63.371094 124 "/></clipPath></defs><g id="bd90ae92e5"><g clip-rule="nonzero" clip-path="url(#91a87dcfac)"><g clip-rule="nonzero" clip-path="url(#6ebea709b7)"><path style=" stroke:none;fill-rule:nonzero;fill:#ffffff;fill-opacity:1;" d="M 78.472656 27.511719 L 296.515625 27.511719 L 296.515625 245.550781 L 78.472656 245.550781 Z M 78.472656 27.511719 "/></g></g><g clip-rule="nonzero" clip-path="url(#a11d55874a)"><g clip-rule="nonzero" clip-path="url(#776303ce65)"><path style=" stroke:none;fill-rule:nonzero;fill:url(#4a963b390c);" d="M 88.195312 37.230469 L 88.195312 235.832031 L 286.792969 235.832031 L 286.792969 37.230469 Z M 88.195312 37.230469 "/></g></g><path style="fill:none;stroke-width:22;stroke-linecap:butt;stroke-linejoin:miter;stroke:#ffffff;stroke-opacity:1;stroke-miterlimit:4;" d="M 0.00234082 11.004399 L 419.435245 11.004399 " transform="matrix(0,-0.496001,0.496001,0,182.03009,239.876161)"/><g clip-rule="nonzero" clip-path="url(#74b99a4dfc)"><path style="fill:none;stroke-width:18;stroke-linecap:butt;stroke-linejoin:miter;stroke:#ffffff;stroke-opacity:1;stroke-miterlimit:4;" d="M 0.00205295 8.99711 L 226.49975 8.996793 " transform="matrix(-0.405478,-0.286531,0.286531,-0.405478,180.426789,243.527622)"/></g><g style="fill:#545454;fill-opacity:1;"><g transform="translate(49.781251, 306.800723)"><path style="stroke:none" d="M 11.734375 0 L 1 -29.265625 L 8.90625 -29.265625 L 16.34375 -7.140625 L 23.78125 -29.265625 L 31.6875 -29.265625 L 20.890625 0 Z M 11.734375 0 "/></g></g><g style="fill:#545454;fill-opacity:1;"><g transform="translate(80.987845, 306.800723)"><path style="stroke:none" d="M 18.046875 0.703125 C 15.097656 0.703125 12.484375 0.078125 10.203125 -1.171875 C 7.921875 -2.429688 6.128906 -4.203125 4.828125 -6.484375 C 3.535156 -8.765625 2.890625 -11.398438 2.890625 -14.390625 C 2.890625 -17.421875 3.523438 -20.113281 4.796875 -22.46875 C 6.078125 -24.832031 7.847656 -26.671875 10.109375 -27.984375 C 12.378906 -29.304688 15.046875 -29.96875 18.109375 -29.96875 C 20.984375 -29.96875 23.519531 -29.335938 25.71875 -28.078125 C 27.925781 -26.828125 29.648438 -25.109375 30.890625 -22.921875 C 32.128906 -20.734375 32.75 -18.304688 32.75 -15.640625 C 32.75 -15.203125 32.738281 -14.742188 32.71875 -14.265625 C 32.695312 -13.796875 32.664062 -13.304688 32.625 -12.796875 L 10.390625 -12.796875 C 10.546875 -10.515625 11.335938 -8.722656 12.765625 -7.421875 C 14.203125 -6.128906 15.945312 -5.484375 18 -5.484375 C 19.53125 -5.484375 20.816406 -5.828125 21.859375 -6.515625 C 22.898438 -7.203125 23.675781 -8.097656 24.1875 -9.203125 L 31.859375 -9.203125 C 31.304688 -7.359375 30.390625 -5.675781 29.109375 -4.15625 C 27.835938 -2.644531 26.265625 -1.457031 24.390625 -0.59375 C 22.523438 0.269531 20.410156 0.703125 18.046875 0.703125 Z M 18.109375 -23.84375 C 16.265625 -23.84375 14.632812 -23.316406 13.21875 -22.265625 C 11.800781 -21.222656 10.894531 -19.640625 10.5 -17.515625 L 25.078125 -17.515625 C 24.953125 -19.441406 24.238281 -20.976562 22.9375 -22.125 C 21.644531 -23.269531 20.035156 -23.84375 18.109375 -23.84375 Z M 18.109375 -23.84375 "/></g></g><g style="fill:#545454;fill-opacity:1;"><g transform="translate(116.265148, 306.800723)"><path style="stroke:none" d="M 3.828125 0 L 3.828125 -29.265625 L 10.5625 -29.265625 L 11.265625 -23.78125 C 12.328125 -25.664062 13.769531 -27.164062 15.59375 -28.28125 C 17.425781 -29.40625 19.582031 -29.96875 22.0625 -29.96875 L 22.0625 -22 L 19.9375 -22 C 18.289062 -22 16.816406 -21.742188 15.515625 -21.234375 C 14.210938 -20.722656 13.195312 -19.835938 12.46875 -18.578125 C 11.75 -17.328125 11.390625 -15.578125 11.390625 -13.328125 L 11.390625 0 Z M 3.828125 0 "/></g></g><g style="fill:#545454;fill-opacity:1;"><g transform="translate(139.62604, 306.800723)"><path style="stroke:none" d="M 7.90625 -33.8125 C 6.53125 -33.8125 5.398438 -34.222656 4.515625 -35.046875 C 3.628906 -35.867188 3.1875 -36.910156 3.1875 -38.171875 C 3.1875 -39.429688 3.628906 -40.460938 4.515625 -41.265625 C 5.398438 -42.078125 6.53125 -42.484375 7.90625 -42.484375 C 9.28125 -42.484375 10.410156 -42.078125 11.296875 -41.265625 C 12.179688 -40.460938 12.625 -39.429688 12.625 -38.171875 C 12.625 -36.910156 12.179688 -35.867188 11.296875 -35.046875 C 10.410156 -34.222656 9.28125 -33.8125 7.90625 -33.8125 Z M 4.125 0 L 4.125 -29.265625 L 11.6875 -29.265625 L 11.6875 0 Z M 4.125 0 "/></g></g><g style="fill:#000000;fill-opacity:1;"><g transform="translate(155.378904, 306.800723)"><path style="stroke:none" d="M 4.015625 0 L 4.015625 -41.296875 L 18.109375 -41.296875 C 22.953125 -41.296875 26.9375 -40.441406 30.0625 -38.734375 C 33.1875 -37.023438 35.503906 -34.625 37.015625 -31.53125 C 38.535156 -28.445312 39.296875 -24.820312 39.296875 -20.65625 C 39.296875 -16.476562 38.535156 -12.847656 37.015625 -9.765625 C 35.503906 -6.679688 33.1875 -4.28125 30.0625 -2.5625 C 26.9375 -0.851562 22.953125 0 18.109375 0 Z M 11.5625 -6.484375 L 17.765625 -6.484375 C 21.222656 -6.484375 23.953125 -7.046875 25.953125 -8.171875 C 27.960938 -9.296875 29.398438 -10.910156 30.265625 -13.015625 C 31.128906 -15.117188 31.5625 -17.664062 31.5625 -20.65625 C 31.5625 -23.601562 31.128906 -26.140625 30.265625 -28.265625 C 29.398438 -30.390625 27.960938 -32.019531 25.953125 -33.15625 C 23.953125 -34.300781 21.222656 -34.875 17.765625 -34.875 L 11.5625 -34.875 Z M 11.5625 -6.484375 "/></g></g><g style="fill:#000000;fill-opacity:1;"><g transform="translate(197.322322, 306.800723)"><path style="stroke:none" d="M 23.359375 0.703125 C 19.234375 0.703125 15.625 -0.195312 12.53125 -2 C 9.445312 -3.8125 7.03125 -6.320312 5.28125 -9.53125 C 3.53125 -12.738281 2.65625 -16.445312 2.65625 -20.65625 C 2.65625 -24.863281 3.53125 -28.566406 5.28125 -31.765625 C 7.03125 -34.972656 9.445312 -37.484375 12.53125 -39.296875 C 15.625 -41.109375 19.234375 -42.015625 23.359375 -42.015625 C 27.453125 -42.015625 31.050781 -41.109375 34.15625 -39.296875 C 37.269531 -37.484375 39.691406 -34.972656 41.421875 -31.765625 C 43.148438 -28.566406 44.015625 -24.863281 44.015625 -20.65625 C 44.015625 -16.445312 43.148438 -12.738281 41.421875 -9.53125 C 39.691406 -6.320312 37.269531 -3.8125 34.15625 -2 C 31.050781 -0.195312 27.453125 0.703125 23.359375 0.703125 Z M 23.359375 -6.078125 C 27.296875 -6.078125 30.429688 -7.375 32.765625 -9.96875 C 35.109375 -12.5625 36.28125 -16.125 36.28125 -20.65625 C 36.28125 -25.175781 35.109375 -28.734375 32.765625 -31.328125 C 30.429688 -33.921875 27.296875 -35.21875 23.359375 -35.21875 C 19.429688 -35.21875 16.285156 -33.921875 13.921875 -31.328125 C 11.566406 -28.734375 10.390625 -25.175781 10.390625 -20.65625 C 10.390625 -16.125 11.566406 -12.5625 13.921875 -9.96875 C 16.285156 -7.375 19.429688 -6.078125 23.359375 -6.078125 Z M 23.359375 -6.078125 "/></g></g><g style="fill:#000000;fill-opacity:1;"><g transform="translate(243.985111, 306.800723)"><path style="stroke:none" d="M 22.71875 0.703125 C 18.550781 0.703125 14.972656 -0.1875 11.984375 -1.96875 C 8.992188 -3.757812 6.691406 -6.257812 5.078125 -9.46875 C 3.460938 -12.675781 2.65625 -16.382812 2.65625 -20.59375 C 2.65625 -24.800781 3.460938 -28.515625 5.078125 -31.734375 C 6.691406 -34.960938 8.992188 -37.484375 11.984375 -39.296875 C 14.972656 -41.109375 18.550781 -42.015625 22.71875 -42.015625 C 27.675781 -42.015625 31.734375 -40.785156 34.890625 -38.328125 C 38.054688 -35.867188 40.035156 -32.414062 40.828125 -27.96875 L 32.515625 -27.96875 C 31.992188 -30.207031 30.898438 -31.960938 29.234375 -33.234375 C 27.566406 -34.515625 25.351562 -35.15625 22.59375 -35.15625 C 18.78125 -35.15625 15.789062 -33.859375 13.625 -31.265625 C 11.46875 -28.671875 10.390625 -25.113281 10.390625 -20.59375 C 10.390625 -16.070312 11.46875 -12.519531 13.625 -9.9375 C 15.789062 -7.363281 18.78125 -6.078125 22.59375 -6.078125 C 25.351562 -6.078125 27.566406 -6.675781 29.234375 -7.875 C 30.898438 -9.070312 31.992188 -10.734375 32.515625 -12.859375 L 40.828125 -12.859375 C 40.035156 -8.609375 38.054688 -5.285156 34.890625 -2.890625 C 31.734375 -0.492188 27.675781 0.703125 22.71875 0.703125 Z M 22.71875 0.703125 "/></g></g><g style="fill:#000000;fill-opacity:1;"><g transform="translate(287.462323, 306.800723)"><path style="stroke:none" d="M 4.015625 0 L 4.015625 -41.296875 L 11.5625 -41.296875 L 11.5625 -24.609375 L 26.84375 -41.296875 L 36.171875 -41.296875 L 20.9375 -24.890625 L 36.578125 0 L 27.3125 0 L 15.515625 -19.109375 L 11.5625 -14.8125 L 11.5625 0 Z M 4.015625 0 "/></g></g><g style="fill:#000000;fill-opacity:1;"><g transform="translate(97.441404, 332.999978)"><path style="stroke:none" d="M 1.015625 0 L 1.015625 -10.5 L 4.609375 -10.5 C 5.835938 -10.5 6.847656 -10.28125 7.640625 -9.84375 C 8.429688 -9.40625 9.019531 -8.796875 9.40625 -8.015625 C 9.789062 -7.234375 9.984375 -6.3125 9.984375 -5.25 C 9.984375 -4.1875 9.789062 -3.265625 9.40625 -2.484375 C 9.019531 -1.703125 8.429688 -1.09375 7.640625 -0.65625 C 6.847656 -0.21875 5.835938 0 4.609375 0 Z M 2.9375 -1.65625 L 4.515625 -1.65625 C 5.390625 -1.65625 6.082031 -1.796875 6.59375 -2.078125 C 7.101562 -2.359375 7.46875 -2.765625 7.6875 -3.296875 C 7.914062 -3.835938 8.03125 -4.488281 8.03125 -5.25 C 8.03125 -6 7.914062 -6.644531 7.6875 -7.1875 C 7.46875 -7.726562 7.101562 -8.140625 6.59375 -8.421875 C 6.082031 -8.710938 5.390625 -8.859375 4.515625 -8.859375 L 2.9375 -8.859375 Z M 2.9375 -1.65625 "/></g></g><g style="fill:#000000;fill-opacity:1;"><g transform="translate(108.106393, 332.999978)"><path style="stroke:none" d="M 1.015625 0 L 1.015625 -10.5 L 2.9375 -10.5 L 2.9375 0 Z M 1.015625 0 "/></g></g><g style="fill:#000000;fill-opacity:1;"><g transform="translate(112.066392, 332.999978)"><path style="stroke:none" d="M 4.609375 0.1875 C 3.835938 0.1875 3.15625 0.0546875 2.5625 -0.203125 C 1.976562 -0.472656 1.515625 -0.851562 1.171875 -1.34375 C 0.828125 -1.84375 0.648438 -2.453125 0.640625 -3.171875 L 2.671875 -3.171875 C 2.691406 -2.679688 2.867188 -2.265625 3.203125 -1.921875 C 3.535156 -1.585938 4 -1.421875 4.59375 -1.421875 C 5.101562 -1.421875 5.503906 -1.539062 5.796875 -1.78125 C 6.097656 -2.03125 6.25 -2.363281 6.25 -2.78125 C 6.25 -3.207031 6.113281 -3.539062 5.84375 -3.78125 C 5.582031 -4.019531 5.234375 -4.210938 4.796875 -4.359375 C 4.359375 -4.515625 3.890625 -4.675781 3.390625 -4.84375 C 2.578125 -5.125 1.957031 -5.484375 1.53125 -5.921875 C 1.113281 -6.359375 0.90625 -6.945312 0.90625 -7.6875 C 0.894531 -8.300781 1.039062 -8.828125 1.34375 -9.265625 C 1.644531 -9.710938 2.0625 -10.0625 2.59375 -10.3125 C 3.125 -10.5625 3.734375 -10.6875 4.421875 -10.6875 C 5.117188 -10.6875 5.734375 -10.5625 6.265625 -10.3125 C 6.804688 -10.0625 7.226562 -9.707031 7.53125 -9.25 C 7.84375 -8.800781 8.007812 -8.269531 8.03125 -7.65625 L 5.96875 -7.65625 C 5.957031 -8.019531 5.8125 -8.34375 5.53125 -8.625 C 5.257812 -8.914062 4.878906 -9.0625 4.390625 -9.0625 C 3.972656 -9.070312 3.617188 -8.96875 3.328125 -8.75 C 3.046875 -8.539062 2.90625 -8.226562 2.90625 -7.8125 C 2.90625 -7.46875 3.015625 -7.191406 3.234375 -6.984375 C 3.453125 -6.773438 3.75 -6.597656 4.125 -6.453125 C 4.507812 -6.316406 4.945312 -6.171875 5.4375 -6.015625 C 5.957031 -5.835938 6.429688 -5.628906 6.859375 -5.390625 C 7.296875 -5.148438 7.644531 -4.832031 7.90625 -4.4375 C 8.164062 -4.039062 8.296875 -3.53125 8.296875 -2.90625 C 8.296875 -2.351562 8.15625 -1.84375 7.875 -1.375 C 7.59375 -0.90625 7.175781 -0.523438 6.625 -0.234375 C 6.082031 0.046875 5.410156 0.1875 4.609375 0.1875 Z M 4.609375 0.1875 "/></g></g><g style="fill:#000000;fill-opacity:1;"><g transform="translate(120.886387, 332.999978)"><path style="stroke:none" d="M 3.46875 0 L 3.46875 -8.953125 L 0.40625 -8.953125 L 0.40625 -10.5 L 8.453125 -10.5 L 8.453125 -8.953125 L 5.390625 -8.953125 L 5.390625 0 Z M 3.46875 0 "/></g></g><g style="fill:#000000;fill-opacity:1;"><g transform="translate(129.751381, 332.999978)"><path style="stroke:none" d="M 1.015625 0 L 1.015625 -10.5 L 4.875 -10.5 C 5.71875 -10.5 6.410156 -10.351562 6.953125 -10.0625 C 7.492188 -9.78125 7.898438 -9.394531 8.171875 -8.90625 C 8.441406 -8.425781 8.578125 -7.894531 8.578125 -7.3125 C 8.578125 -6.664062 8.410156 -6.078125 8.078125 -5.546875 C 7.742188 -5.015625 7.222656 -4.628906 6.515625 -4.390625 L 8.6875 0 L 6.484375 0 L 4.53125 -4.140625 L 2.9375 -4.140625 L 2.9375 0 Z M 2.9375 -5.546875 L 4.75 -5.546875 C 5.394531 -5.546875 5.863281 -5.703125 6.15625 -6.015625 C 6.457031 -6.328125 6.609375 -6.738281 6.609375 -7.25 C 6.609375 -7.75 6.460938 -8.144531 6.171875 -8.4375 C 5.878906 -8.738281 5.398438 -8.890625 4.734375 -8.890625 L 2.9375 -8.890625 Z M 2.9375 -5.546875 "/></g></g><g style="fill:#000000;fill-opacity:1;"><g transform="translate(139.096374, 332.999978)"><path style="stroke:none" d="M 1.015625 0 L 1.015625 -10.5 L 2.9375 -10.5 L 2.9375 0 Z M 1.015625 0 "/></g></g><g style="fill:#000000;fill-opacity:1;"><g transform="translate(143.056373, 332.999978)"><path style="stroke:none" d="M 1.015625 0 L 1.015625 -10.5 L 5.234375 -10.5 C 6.328125 -10.5 7.160156 -10.242188 7.734375 -9.734375 C 8.304688 -9.234375 8.59375 -8.585938 8.59375 -7.796875 C 8.59375 -7.140625 8.414062 -6.613281 8.0625 -6.21875 C 7.707031 -5.820312 7.273438 -5.554688 6.765625 -5.421875 C 7.367188 -5.296875 7.863281 -4.992188 8.25 -4.515625 C 8.632812 -4.046875 8.828125 -3.492188 8.828125 -2.859375 C 8.828125 -2.035156 8.523438 -1.351562 7.921875 -0.8125 C 7.328125 -0.269531 6.484375 0 5.390625 0 Z M 2.9375 -6.09375 L 4.953125 -6.09375 C 5.492188 -6.09375 5.90625 -6.21875 6.1875 -6.46875 C 6.476562 -6.71875 6.625 -7.070312 6.625 -7.53125 C 6.625 -7.96875 6.484375 -8.3125 6.203125 -8.5625 C 5.921875 -8.820312 5.492188 -8.953125 4.921875 -8.953125 L 2.9375 -8.953125 Z M 2.9375 -1.5625 L 5.078125 -1.5625 C 5.648438 -1.5625 6.09375 -1.691406 6.40625 -1.953125 C 6.726562 -2.222656 6.890625 -2.597656 6.890625 -3.078125 C 6.890625 -3.566406 6.722656 -3.953125 6.390625 -4.234375 C 6.054688 -4.515625 5.613281 -4.65625 5.0625 -4.65625 L 2.9375 -4.65625 Z M 2.9375 -1.5625 "/></g></g><g style="fill:#000000;fill-opacity:1;"><g transform="translate(152.521368, 332.999978)"><path style="stroke:none" d="M 5.0625 0.1875 C 4.300781 0.1875 3.609375 0.0351562 2.984375 -0.265625 C 2.367188 -0.578125 1.875 -1.039062 1.5 -1.65625 C 1.132812 -2.28125 0.953125 -3.066406 0.953125 -4.015625 L 0.953125 -10.5 L 2.875 -10.5 L 2.875 -4 C 2.875 -3.1875 3.070312 -2.578125 3.46875 -2.171875 C 3.863281 -1.773438 4.410156 -1.578125 5.109375 -1.578125 C 5.804688 -1.578125 6.351562 -1.773438 6.75 -2.171875 C 7.144531 -2.578125 7.34375 -3.1875 7.34375 -4 L 7.34375 -10.5 L 9.265625 -10.5 L 9.265625 -4.015625 C 9.265625 -3.066406 9.070312 -2.28125 8.6875 -1.65625 C 8.3125 -1.039062 7.804688 -0.578125 7.171875 -0.265625 C 6.535156 0.0351562 5.832031 0.1875 5.0625 0.1875 Z M 5.0625 0.1875 "/></g></g><g style="fill:#000000;fill-opacity:1;"><g transform="translate(162.736353, 332.999978)"><path style="stroke:none" d="M 3.46875 0 L 3.46875 -8.953125 L 0.40625 -8.953125 L 0.40625 -10.5 L 8.453125 -10.5 L 8.453125 -8.953125 L 5.390625 -8.953125 L 5.390625 0 Z M 3.46875 0 "/></g></g><g style="fill:#000000;fill-opacity:1;"><g transform="translate(171.601346, 332.999978)"><path style="stroke:none" d="M 1.015625 0 L 1.015625 -10.5 L 7.875 -10.5 L 7.875 -8.953125 L 2.9375 -8.953125 L 2.9375 -6.078125 L 7.421875 -6.078125 L 7.421875 -4.578125 L 2.9375 -4.578125 L 2.9375 -1.546875 L 7.875 -1.546875 L 7.875 0 Z M 1.015625 0 "/></g></g><g style="fill:#000000;fill-opacity:1;"><g transform="translate(180.271332, 332.999978)"><path style="stroke:none" d="M 1.015625 0 L 1.015625 -10.5 L 4.609375 -10.5 C 5.835938 -10.5 6.847656 -10.28125 7.640625 -9.84375 C 8.429688 -9.40625 9.019531 -8.796875 9.40625 -8.015625 C 9.789062 -7.234375 9.984375 -6.3125 9.984375 -5.25 C 9.984375 -4.1875 9.789062 -3.265625 9.40625 -2.484375 C 9.019531 -1.703125 8.429688 -1.09375 7.640625 -0.65625 C 6.847656 -0.21875 5.835938 0 4.609375 0 Z M 2.9375 -1.65625 L 4.515625 -1.65625 C 5.390625 -1.65625 6.082031 -1.796875 6.59375 -2.078125 C 7.101562 -2.359375 7.46875 -2.765625 7.6875 -3.296875 C 7.914062 -3.835938 8.03125 -4.488281 8.03125 -5.25 C 8.03125 -6 7.914062 -6.644531 7.6875 -7.1875 C 7.46875 -7.726562 7.101562 -8.140625 6.59375 -8.421875 C 6.082031 -8.710938 5.390625 -8.859375 4.515625 -8.859375 L 2.9375 -8.859375 Z M 2.9375 -1.65625 "/></g></g><g style="fill:#000000;fill-opacity:1;"><g transform="translate(194.506317, 332.999978)"><path style="stroke:none" d="M 0.34375 0 L 4.1875 -10.5 L 6.34375 -10.5 L 10.1875 0 L 8.140625 0 L 7.3125 -2.4375 L 3.203125 -2.4375 L 2.359375 0 Z M 3.734375 -3.9375 L 6.78125 -3.9375 L 5.25 -8.296875 Z M 3.734375 -3.9375 "/></g></g><g style="fill:#000000;fill-opacity:1;"><g transform="translate(205.021308, 332.999978)"><path style="stroke:none" d="M 1.015625 0 L 1.015625 -10.5 L 4.875 -10.5 C 5.71875 -10.5 6.410156 -10.351562 6.953125 -10.0625 C 7.492188 -9.78125 7.898438 -9.394531 8.171875 -8.90625 C 8.441406 -8.425781 8.578125 -7.894531 8.578125 -7.3125 C 8.578125 -6.664062 8.410156 -6.078125 8.078125 -5.546875 C 7.742188 -5.015625 7.222656 -4.628906 6.515625 -4.390625 L 8.6875 0 L 6.484375 0 L 4.53125 -4.140625 L 2.9375 -4.140625 L 2.9375 0 Z M 2.9375 -5.546875 L 4.75 -5.546875 C 5.394531 -5.546875 5.863281 -5.703125 6.15625 -6.015625 C 6.457031 -6.328125 6.609375 -6.738281 6.609375 -7.25 C 6.609375 -7.75 6.460938 -8.144531 6.171875 -8.4375 C 5.878906 -8.738281 5.398438 -8.890625 4.734375 -8.890625 L 2.9375 -8.890625 Z M 2.9375 -5.546875 "/></g></g><g style="fill:#000000;fill-opacity:1;"><g transform="translate(214.366301, 332.999978)"><path style="stroke:none" d="M 3.46875 0 L 3.46875 -8.953125 L 0.40625 -8.953125 L 0.40625 -10.5 L 8.453125 -10.5 L 8.453125 -8.953125 L 5.390625 -8.953125 L 5.390625 0 Z M 3.46875 0 "/></g></g><g style="fill:#000000;fill-opacity:1;"><g transform="translate(223.231294, 332.999978)"><path style="stroke:none" d="M 1.015625 0 L 1.015625 -10.5 L 7.875 -10.5 L 7.875 -8.953125 L 2.9375 -8.953125 L 2.9375 -6.078125 L 7.421875 -6.078125 L 7.421875 -4.578125 L 2.9375 -4.578125 L 2.9375 -1.546875 L 7.875 -1.546875 L 7.875 0 Z M 1.015625 0 "/></g></g><g style="fill:#000000;fill-opacity:1;"><g transform="translate(231.90128, 332.999978)"><path style="stroke:none" d="M 1.015625 0 L 1.015625 -10.5 L 7.796875 -10.5 L 7.796875 -8.953125 L 2.9375 -8.953125 L 2.9375 -6.015625 L 6.875 -6.015625 L 6.875 -4.5 L 2.9375 -4.5 L 2.9375 0 Z M 1.015625 0 "/></g></g><g style="fill:#000000;fill-opacity:1;"><g transform="translate(239.026268, 332.999978)"><path style="stroke:none" d="M 0.34375 0 L 4.1875 -10.5 L 6.34375 -10.5 L 10.1875 0 L 8.140625 0 L 7.3125 -2.4375 L 3.203125 -2.4375 L 2.359375 0 Z M 3.734375 -3.9375 L 6.78125 -3.9375 L 5.25 -8.296875 Z M 3.734375 -3.9375 "/></g></g><g style="fill:#000000;fill-opacity:1;"><g transform="translate(248.941257, 332.999978)"><path style="stroke:none" d="M 5.78125 0.1875 C 4.71875 0.1875 3.804688 -0.0390625 3.046875 -0.5 C 2.285156 -0.957031 1.695312 -1.59375 1.28125 -2.40625 C 0.875 -3.21875 0.671875 -4.160156 0.671875 -5.234375 C 0.671875 -6.304688 0.875 -7.25 1.28125 -8.0625 C 1.695312 -8.882812 2.285156 -9.523438 3.046875 -9.984375 C 3.804688 -10.453125 4.71875 -10.6875 5.78125 -10.6875 C 7.039062 -10.6875 8.070312 -10.375 8.875 -9.75 C 9.675781 -9.125 10.175781 -8.242188 10.375 -7.109375 L 8.265625 -7.109375 C 8.128906 -7.679688 7.847656 -8.128906 7.421875 -8.453125 C 7.003906 -8.773438 6.445312 -8.9375 5.75 -8.9375 C 4.78125 -8.9375 4.019531 -8.601562 3.46875 -7.9375 C 2.914062 -7.28125 2.640625 -6.378906 2.640625 -5.234375 C 2.640625 -4.085938 2.914062 -3.1875 3.46875 -2.53125 C 4.019531 -1.875 4.78125 -1.546875 5.75 -1.546875 C 6.445312 -1.546875 7.003906 -1.695312 7.421875 -2 C 7.847656 -2.300781 8.128906 -2.722656 8.265625 -3.265625 L 10.375 -3.265625 C 10.175781 -2.191406 9.675781 -1.347656 8.875 -0.734375 C 8.070312 -0.117188 7.039062 0.1875 5.78125 0.1875 Z M 5.78125 0.1875 "/></g></g><g style="fill:#000000;fill-opacity:1;"><g transform="translate(259.861255, 332.999978)"><path style="stroke:none" d="M 3.46875 0 L 3.46875 -8.953125 L 0.40625 -8.953125 L 0.40625 -10.5 L 8.453125 -10.5 L 8.453125 -8.953125 L 5.390625 -8.953125 L 5.390625 0 Z M 3.46875 0 "/></g></g><g style="fill:#000000;fill-opacity:1;"><g transform="translate(268.591254, 332.999978)"><path style="stroke:none" d="M 4.609375 0.1875 C 3.835938 0.1875 3.15625 0.0546875 2.5625 -0.203125 C 1.976562 -0.472656 1.515625 -0.851562 1.171875 -1.34375 C 0.828125 -1.84375 0.648438 -2.453125 0.640625 -3.171875 L 2.671875 -3.171875 C 2.691406 -2.679688 2.867188 -2.265625 3.203125 -1.921875 C 3.535156 -1.585938 4 -1.421875 4.59375 -1.421875 C 5.101562 -1.421875 5.503906 -1.539062 5.796875 -1.78125 C 6.097656 -2.03125 6.25 -2.363281 6.25 -2.78125 C 6.25 -3.207031 6.113281 -3.539062 5.84375 -3.78125 C 5.582031 -4.019531 5.234375 -4.210938 4.796875 -4.359375 C 4.359375 -4.515625 3.890625 -4.675781 3.390625 -4.84375 C 2.578125 -5.125 1.957031 -5.484375 1.53125 -5.921875 C 1.113281 -6.359375 0.90625 -6.945312 0.90625 -7.6875 C 0.894531 -8.300781 1.039062 -8.828125 1.34375 -9.265625 C 1.644531 -9.710938 2.0625 -10.0625 2.59375 -10.3125 C 3.125 -10.5625 3.734375 -10.6875 4.421875 -10.6875 C 5.117188 -10.6875 5.734375 -10.5625 6.265625 -10.3125 C 6.804688 -10.0625 7.226562 -9.707031 7.53125 -9.25 C 7.84375 -8.800781 8.007812 -8.269531 8.03125 -7.65625 L 5.96875 -7.65625 C 5.957031 -8.019531 5.8125 -8.34375 5.53125 -8.625 C 5.257812 -8.914062 4.878906 -9.0625 4.390625 -9.0625 C 3.972656 -9.070312 3.617188 -8.96875 3.328125 -8.75 C 3.046875 -8.539062 2.90625 -8.226562 2.90625 -7.8125 C 2.90625 -7.46875 3.015625 -7.191406 3.234375 -6.984375 C 3.453125 -6.773438 3.75 -6.597656 4.125 -6.453125 C 4.507812 -6.316406 4.945312 -6.171875 5.4375 -6.015625 C 5.957031 -5.835938 6.429688 -5.628906 6.859375 -5.390625 C 7.296875 -5.148438 7.644531 -4.832031 7.90625 -4.4375 C 8.164062 -4.039062 8.296875 -3.53125 8.296875 -2.90625 C 8.296875 -2.351562 8.15625 -1.84375 7.875 -1.375 C 7.59375 -0.90625 7.175781 -0.523438 6.625 -0.234375 C 6.082031 0.046875 5.410156 0.1875 4.609375 0.1875 Z M 4.609375 0.1875 "/></g></g></g></svg>